<?xml version="1.0" encoding="iso-8859-1"?>
<!-- Generator: Adobe Illustrator 19.0.0, SVG Export Plug-In . SVG Version: 6.00 Build 0)  -->
<svg version="1.1" id="Capa_1" xmlns="http://www.w3.org/2000/svg" xmlns:xlink="http://www.w3.org/1999/xlink" x="0px" y="0px"
	 viewBox="0 0 512 512" style="enable-background:new 0 0 512 512;" xml:space="preserve">
<path style="fill:#87C7FF;" d="M180.825,101.47l37.612,57.386l91.494-29.258C309.932,129.598,263.028,74.919,180.825,101.47z"/>
<g>
	<path style="fill:#38A5F6;" d="M218.437,353.145l-37.612,57.386c82.203,26.55,129.107-28.129,129.107-28.129L218.437,353.145z"/>
	<path style="fill:#38A5F6;" d="M339.05,127.386c-93.503,0-205.181,74.398-235.222,112.865v31.5
		c30.041,38.467,141.719,112.865,235.222,112.865c109.113,0,172.949-128.614,172.949-128.614S448.163,127.386,339.05,127.386z"/>
</g>
<path style="fill:#1B84FF;" d="M103.829,256v15.75c30.041,38.467,141.719,112.865,235.222,112.865
	C448.164,384.615,512,256.001,512,256.001S155.44,256,103.829,256z"/>
<path style="fill:#F2F6FC;" d="M511.999,256c0,0-44.335-89.295-122.25-119.07c-24.519,32.947-39.111,74.24-39.111,119.07
	s14.592,86.123,39.111,119.07C467.664,345.295,511.999,256,511.999,256z"/>
<path style="fill:#E9EDF5;" d="M511.999,256c0,0-135.293,0-161.361,0c0,44.83,14.592,86.123,39.111,119.07
	C467.664,345.295,511.999,256,511.999,256z"/>
<rect x="399.95" y="209.171" style="fill:#636978;" width="31.99" height="30"/>
<path style="fill:#87C7FF;" d="M37.966,256.004C14.836,237.668,0,209.324,0,177.516c0-4.229,0.265-8.395,0.774-12.486
	c4.111-0.563,8.307-0.861,12.573-0.861c50.717,0,91.832,41.115,91.832,91.832s-41.115,91.832-91.832,91.832
	c-4.266,0-8.462-0.298-12.574-0.861C0.265,342.883,0,338.719,0,334.492C0,302.684,14.836,274.34,37.966,256.004z"/>
<path style="fill:#38A5F6;" d="M37.966,256.004c22.438,0,46.83-0.004,67.213-0.004c0,50.717-41.115,91.832-91.832,91.832
	c-4.266,0-8.462-0.298-12.574-0.861C0.265,342.883,0,338.719,0,334.492C0,302.684,14.836,274.34,37.966,256.004z"/>
<g>
</g>
<g>
</g>
<g>
</g>
<g>
</g>
<g>
</g>
<g>
</g>
<g>
</g>
<g>
</g>
<g>
</g>
<g>
</g>
<g>
</g>
<g>
</g>
<g>
</g>
<g>
</g>
<g>
</g>
</svg>
