<?xml version="1.0"?>
<svg xmlns="http://www.w3.org/2000/svg" xmlns:xlink="http://www.w3.org/1999/xlink" version="1.1" id="Capa_1" x="0px" y="0px" viewBox="0 0 480.32 480.32" style="enable-background:new 0 0 480.32 480.32;" xml:space="preserve" width="512px" height="512px" class=""><g><g>
	<g>
		<path style="fill:#F8615A" d="M460.8,217.695c12.075,12.543,12.075,32.388,0,44.931c-18.436,18.744-38.743,35.55-60.604,50.155    l0,0c-30.824,0-55.902-32.392-55.902-72.62s25.078-72.62,55.902-72.62l0,0C422.057,182.145,442.364,198.951,460.8,217.695z     M417.959,230.234c0-9.522-7.719-17.241-17.241-17.241s-17.241,7.719-17.241,17.241c0,9.522,7.719,17.241,17.241,17.241    C410.24,247.474,417.959,239.755,417.959,230.234C417.959,230.234,417.959,230.234,417.959,230.234z" data-original="#00ACEA" class="" data-old_color="#00ACEA"/>
		<g>
			<path style="fill:#F8615A" d="M400.718,212.993c9.522,0,17.241,7.719,17.241,17.241c0,9.522-7.719,17.241-17.241,17.241     c-9.522,0-17.241-7.719-17.241-17.241C383.478,220.712,391.197,212.993,400.718,212.993L400.718,212.993z" data-original="#00EFD1" class="" data-old_color="#00EFD1"/>
			<path style="fill:#F8615A" d="M400.196,312.781L400.196,312.781c-30.824,20.376-69.486,37.616-110.759,37.616     c-97.176,0-177.633-93.518-189.649-108.147c0.202-0.761,0.557-1.472,1.045-2.09c-0.488-0.618-0.843-1.329-1.045-2.09     c12.016-14.629,92.473-108.147,189.649-108.147c41.273,0,79.935,17.241,110.759,37.616l0,0c-30.824,0-55.902,32.392-55.902,72.62     S369.371,312.781,400.196,312.781z" data-original="#00EFD1" class="" data-old_color="#00EFD1"/>
		</g>
		<path style="fill:#F8615A" d="M99.788,238.07l-1.567,2.09l1.567,2.09c-5.747,13.584-43.363,94.563-88.816,94.563V143.507    C56.424,143.507,94.041,224.487,99.788,238.07z" data-original="#00ACEA" class="" data-old_color="#00ACEA"/>
	</g>
	<g>
		<path style="fill:#2A2727" d="M468.114,210.381c-18.892-19.331-39.726-36.663-62.171-51.722l0,0    c-39.184-26.122-78.367-39.184-116.506-39.184c-86.204,0-158.302,67.918-187.037,99.788    c-38.661-79.935-79.935-86.204-91.951-86.204C4.678,133.058,0,137.736,0,143.507v193.306c0,5.771,4.678,10.449,10.449,10.449    c12.016,0,52.767-6.269,91.951-86.204c28.735,31.869,100.833,99.788,187.037,99.788c37.616,0,77.322-13.061,116.506-39.184    c22.596-15.056,43.448-32.579,62.171-52.245C484.389,253.103,484.389,226.695,468.114,210.381z M20.898,324.797V155.523    c26.122,9.404,53.812,52.767,67.396,82.547c-0.43,1.349-0.607,2.766-0.522,4.18C74.188,272.03,47.02,315.393,20.898,324.797z     M111.804,240.16c18.808-21.943,92.473-99.788,177.633-99.788c29.697,0.885,58.738,8.952,84.637,23.51    c-23.51,13.061-40.229,42.318-40.229,76.278s16.718,63.216,40.229,76.278c-25.899,14.558-54.94,22.625-84.637,23.51    C203.755,339.948,130.612,261.581,111.804,240.16z M453.486,255.311c-17.121,17.233-35.839,32.802-55.902,46.498    c-24.033-1.567-42.841-28.735-42.841-61.649s18.808-60.082,42.841-61.649c20.063,13.696,38.781,29.265,55.902,46.498    C461.323,233.589,461.323,246.731,453.486,255.311z" data-original="#083863" class="active-path" data-old_color="#083863"/>
		<path style="fill:#2A2727" d="M400.718,257.923c-15.293,0-27.69-12.397-27.69-27.69s12.397-27.69,27.69-27.69    c15.293,0,27.69,12.397,27.69,27.69S416.011,257.923,400.718,257.923C400.718,257.923,400.718,257.923,400.718,257.923z     M400.718,223.442c-3.751,0-6.792,3.041-6.792,6.792s3.041,6.792,6.792,6.792c3.751,0,6.792-3.041,6.792-6.792l0,0    C407.51,226.483,404.469,223.442,400.718,223.442L400.718,223.442L400.718,223.442z" data-original="#083863" class="active-path" data-old_color="#083863"/>
	</g>
</g></g> </svg>
