<?xml version="1.0" encoding="iso-8859-1"?>
<!-- Generator: Adobe Illustrator 19.0.0, SVG Export Plug-In . SVG Version: 6.00 Build 0)  -->
<svg version="1.1" id="Capa_1" xmlns="http://www.w3.org/2000/svg" xmlns:xlink="http://www.w3.org/1999/xlink" x="0px" y="0px"
	 viewBox="0 0 472.308 472.308" style="enable-background:new 0 0 472.308 472.308;" xml:space="preserve">
<g>
	<g>
		<g>
			<path d="M380.154,200.002h-304c-23.397,0.043-43.361,16.934-47.28,40h-0.72v8c-0.002,1.638,0.081,3.275,0.248,4.904
				c2.156,72.165,50.13,134.904,119.208,155.896l-15.144,53.024c-1.37,4.201,0.925,8.716,5.126,10.086s8.716-0.925,10.086-5.126
				c0.062-0.19,0.117-0.382,0.164-0.576l5.2-18.208h150.224l5.2,18.192c0.979,3.435,4.116,5.805,7.688,5.808
				c0.744-0.004,1.483-0.106,2.2-0.304c4.245-1.217,6.701-5.642,5.488-9.888l-15.144-53.008
				c69.07-20.993,117.039-83.723,119.2-155.88c0.171-1.634,0.256-3.277,0.256-4.92v-8h-0.72
				C423.515,216.935,403.551,200.045,380.154,200.002z M379.418,216.002h0.736c14.547,0.055,27.227,9.914,30.864,24H374.81
				L379.418,216.002z M332.394,216.002h30.736l-4.576,24h-30.76L332.394,216.002z M324.754,256.002h30.728l-4.6,24h-30.728
				L324.754,256.002z M285.378,216.002h30.728l-4.568,24H280.77L285.378,216.002z M277.738,256.002h30.728l-4.608,24h-30.76
				L277.738,256.002z M238.354,216.002h30.736l-4.576,24h-30.76L238.354,216.002z M230.714,256.002h30.728l-4.6,24h-30.76
				L230.714,256.002z M191.338,216.002h30.728l-4.568,24H186.73L191.338,216.002z M183.69,256.002h30.704l-4.6,24h-30.736
				L183.69,256.002z M144.314,216.002h30.728l-4.568,24h-30.76L144.314,216.002z M136.674,256.002h30.68l-4.6,24h-30.72
				L136.674,256.002z M97.298,216.002h30.728l-4.576,24H92.69L97.298,216.002z M89.65,256.002h30.736l-4.608,24h-30.76
				L89.65,256.002z M76.154,216.002h4.848l-4.6,24H45.29C48.927,225.916,61.607,216.056,76.154,216.002z M73.33,256.002
				l-4.432,23.096c-11.541-2.729-20.626-11.617-23.608-23.096H73.33z M157.618,432.002l4.568-16h131.936l4.568,16H157.618z
				 M260.154,400.002h-64c-68.502-0.112-128.489-45.973-146.56-112.048c7.368,4.903,15.955,7.659,24.8,7.96
				c0.318,0.049,0.639,0.078,0.96,0.088c0.064,0,0.12,0,0.184,0c0.208,0,0.416,0,0.624,0h303.992
				c9.455,0.005,18.698-2.796,26.56-8.048C388.643,354.029,328.656,399.89,260.154,400.002z M380.154,280.002h-13.016l4.64-24
				h39.272C407.41,270.099,394.713,279.962,380.154,280.002z"/>
			<path d="M436.154,136.002h-72v-32h-48v32h-16.8c-4.396-21.65-25.51-35.636-47.16-31.24c-15.741,3.196-28.044,15.499-31.24,31.24
				h-16.8v-32h-48v32h-16.8c-4.396-21.65-25.51-35.636-47.16-31.24c-15.741,3.196-28.044,15.499-31.24,31.24h-16.8
				c-4.418,0-8,3.582-8,8s3.582,8,8,8h16.8c4.396,21.65,25.51,35.636,47.16,31.24c15.741-3.196,28.044-15.499,31.24-31.24h16.8v32
				h48v-32h16.8c4.396,21.65,25.51,35.636,47.16,31.24c15.741-3.196,28.044-15.499,31.24-31.24h16.8v32h48v-32h72
				c4.418,0,8-3.582,8-8S440.572,136.002,436.154,136.002z M100.154,168.002c-13.255,0-24-10.745-24-24s10.745-24,24-24
				s24,10.745,24,24S113.409,168.002,100.154,168.002z M188.154,168.002h-16v-48h16V168.002z M260.154,168.002
				c-13.255,0-24-10.745-24-24s10.745-24,24-24s24,10.745,24,24S273.409,168.002,260.154,168.002z M348.154,168.002h-16v-48h16
				V168.002z"/>
			<path d="M106.554,56.002l-13.04,19.56c-2.456,3.672-1.471,8.639,2.2,11.096c3.675,2.452,8.643,1.461,11.095-2.214
				c0-0.001,0.001-0.001,0.001-0.002l16-24c1.794-2.688,1.794-6.192,0-8.88l-13.056-19.56l13.04-19.56
				c2.452-3.676,1.46-8.644-2.216-11.096s-8.644-1.46-11.096,2.216l-16,24c-1.794,2.688-1.794,6.192,0,8.88L106.554,56.002z"/>
			<path d="M186.554,56.002l-13.04,19.56c-2.456,3.672-1.471,8.639,2.2,11.096c3.675,2.452,8.643,1.461,11.095-2.214
				c0-0.001,0.001-0.001,0.001-0.002l16-24c1.794-2.688,1.794-6.192,0-8.88l-13.056-19.56l13.04-19.56
				c2.452-3.676,1.46-8.644-2.216-11.096s-8.644-1.46-11.096,2.216l-16,24c-1.794,2.688-1.794,6.192,0,8.88L186.554,56.002z"/>
			<path d="M266.554,56.002l-13.04,19.56c-2.456,3.672-1.471,8.639,2.2,11.096c3.675,2.452,8.643,1.461,11.095-2.214
				c0-0.001,0.001-0.001,0.001-0.002l16-24c1.794-2.688,1.794-6.192,0-8.88l-13.056-19.56l13.04-19.56
				c2.452-3.676,1.46-8.644-2.216-11.096s-8.644-1.46-11.096,2.216l-16,24c-1.794,2.688-1.794,6.192,0,8.88L266.554,56.002z"/>
			<path d="M338.554,56.002l-13.04,19.56c-2.456,3.672-1.471,8.639,2.2,11.096c3.675,2.452,8.643,1.461,11.095-2.214
				c0-0.001,0.001-0.001,0.001-0.002l16-24c1.794-2.688,1.794-6.192,0-8.88l-13.056-19.56l13.04-19.56
				c2.452-3.676,1.46-8.644-2.216-11.096s-8.644-1.46-11.096,2.216l-16,24c-1.794,2.688-1.794,6.192,0,8.88L338.554,56.002z"/>
		</g>
	</g>
</g>
<g>
</g>
<g>
</g>
<g>
</g>
<g>
</g>
<g>
</g>
<g>
</g>
<g>
</g>
<g>
</g>
<g>
</g>
<g>
</g>
<g>
</g>
<g>
</g>
<g>
</g>
<g>
</g>
<g>
</g>
</svg>
