<?xml version="1.0"?>
<svg xmlns="http://www.w3.org/2000/svg" xmlns:xlink="http://www.w3.org/1999/xlink" xmlns:svgjs="http://svgjs.com/svgjs" version="1.1" width="512" height="512" x="0" y="0" viewBox="0 0 512 512" style="enable-background:new 0 0 512 512" xml:space="preserve" class=""><g>
<polygon xmlns="http://www.w3.org/2000/svg" style="" points="151.989,239.549 77.023,167.923 116.737,106.286 141.951,122.532 115.654,163.348   172.71,217.861 " fill="#ffa720" data-original="#ffa720" class=""/>
<g xmlns="http://www.w3.org/2000/svg">
	<polygon style="" points="397.707,495.011 388.332,469.411 312.982,432.813 326.087,405.833 412.33,447.722    425.872,484.694  " fill="#ff8600" data-original="#ff8600" class=""/>
	<polygon style="" points="449.773,444.215 433.185,408.257 354.276,393.361 359.84,363.887 453.945,381.651    477.01,431.651  " fill="#ff8600" data-original="#ff8600" class=""/>
	<polygon style="" points="489.919,382.728 455.94,345.77 378.246,334.22 382.656,304.551 470.843,317.661    512,362.427  " fill="#ff8600" data-original="#ff8600" class=""/>
</g>
<g xmlns="http://www.w3.org/2000/svg">
	<polygon style="" points="114.293,495.011 86.128,484.694 99.67,447.722 185.913,405.833 199.018,432.813    123.668,469.411  " fill="#ffa720" data-original="#ffa720" class=""/>
	<polygon style="" points="62.227,444.215 34.99,431.651 58.055,381.651 152.16,363.887 157.723,393.361    78.815,408.257  " fill="#ffa720" data-original="#ffa720" class=""/>
	<polygon style="" points="22.081,382.728 0,362.427 41.157,317.661 129.344,304.551 133.754,334.22 56.06,345.77  " fill="#ffa720" data-original="#ffa720" class=""/>
</g>
<path xmlns="http://www.w3.org/2000/svg" style="" d="M404.525,246.062l-0.02,8.499c-0.01,1.97-0.32,48.942-17.767,96.634  C362.472,417.514,317.259,452.558,256,452.558s-106.472-35.044-130.738-101.363c-17.447-47.692-17.757-94.664-17.767-96.634  l-0.02-8.559l59.15-35.144c27.036-16.067,57.93-24.576,89.375-24.646h0.38c31.985,0,63.359,8.729,90.755,25.246L404.525,246.062z" fill="#f8615a" data-original="#ff7a53" class=""/>
<circle xmlns="http://www.w3.org/2000/svg" style="" cx="220.023" cy="165.633" r="17.057" fill="#57555c" data-original="#57555c"/>
<circle xmlns="http://www.w3.org/2000/svg" style="" cx="291.971" cy="165.633" r="17.057" fill="#3a3a41" data-original="#3a3a41"/>
<polygon xmlns="http://www.w3.org/2000/svg" style="" points="360.011,238.409 339.29,216.722 396.346,162.208 370.049,121.392 395.263,105.147   434.977,166.783 " fill="#ff8600" data-original="#ff8600" class=""/>
<path xmlns="http://www.w3.org/2000/svg" style="" d="M214.35,56.932h-33.896V22.386l-11.665-2.659c-4.653-1.061-9.403-1.599-14.12-1.599  c-34.916,0-63.321,28.406-63.321,63.322s28.406,63.322,63.321,63.322c34.916,0,63.322-28.406,63.322-63.322  c0-4.171-0.415-8.363-1.233-12.46L214.35,56.932z" fill="#f8615a" data-original="#ff7a53" class=""/>
<g xmlns="http://www.w3.org/2000/svg">
	<path style="" d="M357.331,16.989c-4.715,0-9.465,0.538-14.12,1.599l-11.665,2.659v34.547h-33.895l-2.41,12.058   c-0.819,4.098-1.234,8.29-1.234,12.46c0,34.916,28.406,63.322,63.322,63.322s63.323-28.406,63.323-63.322   S392.246,16.989,357.331,16.989z" fill="#f8615a" data-original="#ff4f19" class=""/>
	<path style="" d="M404.525,246.062l-0.02,8.499c-0.01,1.97-0.32,48.942-17.767,96.634   C362.472,417.514,317.259,452.558,256,452.558V186.212h0.38c31.985,0,63.359,8.729,90.755,25.246L404.525,246.062z" fill="#f8615a" data-original="#ff4f19" class=""/>
</g>
<g xmlns="http://www.w3.org/2000/svg">
</g>
<g xmlns="http://www.w3.org/2000/svg">
</g>
<g xmlns="http://www.w3.org/2000/svg">
</g>
<g xmlns="http://www.w3.org/2000/svg">
</g>
<g xmlns="http://www.w3.org/2000/svg">
</g>
<g xmlns="http://www.w3.org/2000/svg">
</g>
<g xmlns="http://www.w3.org/2000/svg">
</g>
<g xmlns="http://www.w3.org/2000/svg">
</g>
<g xmlns="http://www.w3.org/2000/svg">
</g>
<g xmlns="http://www.w3.org/2000/svg">
</g>
<g xmlns="http://www.w3.org/2000/svg">
</g>
<g xmlns="http://www.w3.org/2000/svg">
</g>
<g xmlns="http://www.w3.org/2000/svg">
</g>
<g xmlns="http://www.w3.org/2000/svg">
</g>
<g xmlns="http://www.w3.org/2000/svg">
</g>
</g></svg>
