<?xml version="1.0"?>
<svg xmlns="http://www.w3.org/2000/svg" xmlns:xlink="http://www.w3.org/1999/xlink" version="1.1" id="Capa_1" x="0px" y="0px" viewBox="0 0 512.007 512.007" style="enable-background:new 0 0 512.007 512.007;" xml:space="preserve" width="512px" height="512px" class=""><g><g transform="translate(0 -1)">
	<g>
		<path style="fill:#F8615A" d="M182.242,348.126c-2.302,0.003-4.51-0.912-6.135-2.543l-15.869-15.864    c-4.893-4.866-11.507-7.607-18.407-7.627h-20.335c-4.793,0-8.678-3.885-8.678-8.678s3.885-8.678,8.678-8.678h20.335    c11.513-0.029,22.56,4.548,30.678,12.712l15.868,15.865c2.481,2.482,3.223,6.214,1.88,9.456    C188.915,346.011,185.752,348.125,182.242,348.126z" data-original="#FB7B76" class="active-path" data-old_color="#FB7B76"/>
		<path style="fill:#F8615A" d="M190.916,313.414c-2.1,0.003-4.129-0.759-5.708-2.144l-18.135-15.864    c-6.251-5.254-14.174-8.101-22.339-8.025h-23.237c-4.793,0-8.678-3.885-8.678-8.678s3.885-8.678,8.678-8.678h23.237    c12.375-0.119,24.373,4.256,33.767,12.314l18.131,15.864c2.721,2.381,3.681,6.2,2.409,9.585    C197.769,311.172,194.532,313.414,190.916,313.414z" data-original="#FB7B76" class="active-path" data-old_color="#FB7B76"/>
		<path style="fill:#F8615A" d="M173.569,382.838c-2.535,0.005-4.944-1.101-6.593-3.025l-13.602-15.864    c-3.522-4.402-8.813-7.018-14.449-7.144h-17.428c-4.793,0-8.678-3.885-8.678-8.678s3.885-8.678,8.678-8.678h17.428    c10.693,0.158,20.784,4.977,27.627,13.195l13.602,15.864c2.204,2.574,2.71,6.194,1.295,9.273    C180.033,380.859,176.957,382.834,173.569,382.838L173.569,382.838z" data-original="#FB7B76" class="active-path" data-old_color="#FB7B76"/>
		<path style="fill:#F8615A" d="M234.297,296.058c-4.313-0.006-7.967-3.179-8.576-7.449l-6.106-42.737    c-1.209-8.459-6.49-15.787-14.131-19.61l-53.157-26.576c-4.271-2.152-5.996-7.354-3.857-11.632    c2.139-4.278,7.335-6.019,11.619-3.894l53.157,26.576c12.736,6.369,21.536,18.581,23.547,32.678l6.106,42.737    c0.679,4.744-2.616,9.141-7.36,9.822C235.128,296.031,234.713,296.059,234.297,296.058L234.297,296.058z" data-original="#FB7B76" class="active-path" data-old_color="#FB7B76"/>
	</g>
	<path style="fill:#F8615A" d="M225.632,434.905l17.356-8.678v52.068l-17.356-8.678c-106.826,0-194.994-76.279-206.883-174.601   c-0.946-7.571-1.409-15.194-1.388-22.823v-0.521c0.053-17.556,2.536-35.019,7.376-51.894v-0.086   c1.828-6.18,3.972-12.263,6.422-18.224c6.97-17.153,16.35-33.224,27.856-47.729c3.818-4.772,7.81-9.459,12.062-13.885   c29.954-31.163,68.76-52.369,111.165-60.746h8.678c-0.955,2.516,20.393,72.287,34.712,95.458l-26.034,3.298   c-44.865,11.194-78.102,47.209-78.102,122.706C121.497,384.573,168.184,434.905,225.632,434.905z" data-original="#D75E72" class="" data-old_color="#D75E72"/>
	<path style="fill:#F8615A" d="M442.581,122.499l-209.66,67.428c-9.781,1.211-19.412-3.185-24.906-11.368l-0.955-1.562   c-1.041-1.562-1.996-3.038-2.951-4.599c-14.322-23.214-21.894-49.958-21.868-77.234v-7.376c-0.034-2.78,0.437-5.544,1.388-8.157   c3.462-10.678,13.42-17.901,24.645-17.877h216.949l-52.068,43.39L442.581,122.499z" data-original="#FB7B76" class="active-path" data-old_color="#FB7B76"/>
	<path style="fill:#2C2F38;" d="M312.412,105.143c-2.902,0.027-5.623-1.412-7.233-3.826c-1.611-2.415-1.894-5.479-0.754-8.148   c0.44-1.052,1.058-2.021,1.826-2.865c2.492-2.467,6.227-3.186,9.458-1.822c2.18,0.79,3.896,2.507,4.686,4.686   c0.487,1.03,0.725,2.159,0.696,3.298c0.017,1.128-0.19,2.249-0.61,3.297c-0.504,1.036-1.145,2-1.906,2.865   C316.94,104.257,314.72,105.164,312.412,105.143L312.412,105.143z" data-original="#2C2F38" class=""/>
	<g>
		<path style="fill:#0A0203" d="M317.532,470.904c0,1.976-0.674,3.892-1.911,5.432l-23.168,28.861    c-3.493,4.694-8.92,7.558-14.766,7.794c-5.846,0.236-11.486-2.182-15.346-6.579l-36.708-36.795v-34.712l36.708-36.795    c3.86-4.397,9.5-6.814,15.346-6.579c5.846,0.236,11.273,3.1,14.767,7.793l23.169,28.861c1.237,1.541,1.911,3.457,1.911,5.432    L317.532,470.904z" data-original="#DF4D60" class="" data-old_color="#DF4D60"/>
		<path style="fill:#0A0203" d="M374.81,235.312c-51.515,0.448-97.497-32.224-114.025-81.017c-0.975-2.943-0.306-6.182,1.755-8.498    s5.201-3.356,8.237-2.729s5.507,2.826,6.482,5.769c16.291,46.883,63.728,75.454,112.787,67.93s85.754-48.998,87.246-98.608    c-0.816-55.826-46.655-100.464-102.483-99.797h-71.076c-4.793,0-8.678-3.885-8.678-8.678s3.885-8.678,8.678-8.678h71.076    C440.22,0.345,493.826,52.75,494.648,118.159C493.827,183.569,440.221,235.973,374.81,235.312L374.81,235.312z" data-original="#DF4D60" class="" data-old_color="#DF4D60"/>
	</g>
	<g>
		<path style="fill:#802D40" d="M103.707,175.434c-1.177,3.56-4.495,5.97-8.244,5.988c-0.941-0.023-1.874-0.169-2.777-0.434    c-14.047-4.897-25.952-14.531-33.671-27.249c3.818-4.772,7.81-9.459,12.062-13.885c5.521,11.422,15.258,20.257,27.162,24.645    C102.755,166.025,105.196,170.907,103.707,175.434z" data-original="#802D40" class="" data-old_color="#802D40"/>
		<path style="fill:#802D40" d="M73.334,228.804c-0.257,4.563-4.021,8.136-8.591,8.157h-0.521    c-14.744-1.026-28.685-7.093-39.485-17.182v-0.086c1.828-6.18,3.972-12.263,6.422-18.224l7.636,7.463    c7.432,6.277,16.675,10.017,26.381,10.674C69.962,219.907,73.606,224.016,73.334,228.804L73.334,228.804z" data-original="#802D40" class="" data-old_color="#802D40"/>
		<path style="fill:#802D40" d="M61.705,295.884c0.054,2.304-0.813,4.534-2.41,6.196c-1.597,1.662-3.791,2.618-6.095,2.655h-1.302    c-11.736-0.112-23.211-3.476-33.15-9.719c-0.946-7.571-1.409-15.194-1.388-22.823v-0.521c9.035,9.574,21.47,15.215,34.625,15.708    h1.041C57.768,287.343,61.647,291.144,61.705,295.884z" data-original="#802D40" class="" data-old_color="#802D40"/>
	</g>
	<path style="fill:#F8615A" d="M329.768,452.261c0,4.773-1.388,9.286-12.583,21.087c-3.494,1.88-7.4,2.864-11.368,2.864   c-0.667,0.014-1.333-0.015-1.996-0.087l-78.188-6.509v-34.712l78.188-6.508c4.627-0.345,9.258,0.618,13.364,2.778   C324.955,435.336,329.795,443.447,329.768,452.261L329.768,452.261z" data-original="#FB7B76" class="active-path" data-old_color="#FB7B76"/>
</g></g> </svg>
