<?xml version="1.0" encoding="iso-8859-1"?>
<!-- Generator: Adobe Illustrator 19.0.0, SVG Export Plug-In . SVG Version: 6.00 Build 0)  -->
<svg version="1.1" id="Capa_1" xmlns="http://www.w3.org/2000/svg" xmlns:xlink="http://www.w3.org/1999/xlink" x="0px" y="0px"
	 viewBox="0 0 512.006 512.006" style="enable-background:new 0 0 512.006 512.006;" xml:space="preserve">
<g transform="translate(0 -1)">
	<g>
		<g>
			<path d="M318.978,87.023c-3.177-1.341-6.849-0.634-9.3,1.792c-0.755,0.829-1.363,1.782-1.796,2.817
				c-1.122,2.625-0.843,5.638,0.741,8.012c1.584,2.374,4.259,3.789,7.113,3.762c2.27,0.021,4.453-0.871,6.059-2.475
				c0.749-0.85,1.379-1.798,1.875-2.817c0.413-1.03,0.617-2.132,0.6-3.242c0.029-1.119-0.205-2.229-0.683-3.242
				C322.81,89.488,321.122,87.8,318.978,87.023z"/>
			<path d="M377.095,1.006h-69.892c-4.713,0-8.533,3.82-8.533,8.533s3.82,8.533,8.533,8.533h69.892
				c54.898-0.656,99.973,43.238,100.775,98.133c-0.802,54.896-45.877,98.789-100.775,98.133
				c-30.902,0.148-60.186-13.799-79.548-37.883l148.802-47.858c3.628-1.166,6.043-4.596,5.917-8.404
				c-0.126-3.808-2.762-7.072-6.458-7.996L393.84,99.206l38.292-31.908c2.762-2.299,3.788-6.083,2.565-9.463
				c-1.223-3.379-4.433-5.63-8.027-5.629H213.336c-12.457,0.044-23.894,6.893-29.814,17.854
				C86.935,90.666,17.07,173.325,17.07,267.698c0,3.763,0.128,7.498,0.342,11.21c-0.39,1.679-0.249,3.438,0.404,5.033
				c8.653,103.03,98.742,184.552,208.966,186.31l33.675,33.738c5.298,5.603,12.619,8.851,20.329,9.017
				c0.246,0,0.496-0.008,0.742-0.017c8.287-0.485,15.991-4.424,21.238-10.858l24.658-30.716c0.147-0.183,0.181-0.408,0.31-0.599
				c1.134-0.752,2.217-1.576,3.244-2.468c6.602-6.075,10.358-14.637,10.358-23.608c0-8.972-3.757-17.533-10.358-23.608
				c-1.015-0.86-2.083-1.655-3.199-2.379c-0.145-0.221-0.187-0.477-0.355-0.688l-24.929-31.034
				c-5.22-6.275-12.816-10.094-20.966-10.542c-7.965-0.044-15.592,3.214-21.067,9l-33.399,33.456
				c-35.42-1.345-63.597-23.786-78.599-59.54h5.21c5.542,0.124,10.745,2.697,14.208,7.025l13.375,15.6
				c3.073,3.566,8.452,3.971,12.025,0.906c3.573-3.065,3.99-8.443,0.934-12.023l-13.375-15.6
				c-6.729-8.081-16.652-12.82-27.166-12.975h-11.076c-1.536-5.618-2.764-11.315-3.68-17.067h17.614
				c6.785,0.02,13.289,2.715,18.1,7.5l15.605,15.6c3.341,3.281,8.701,3.256,12.012-0.054c3.311-3.311,3.335-8.671,0.054-12.012
				l-15.604-15.6c-7.983-8.028-18.845-12.529-30.166-12.5h-19.574c-0.264-4.127-0.421-8.323-0.421-12.608
				c0-1.524,0.08-2.964,0.107-4.458h22.743c8.029-0.074,15.82,2.725,21.967,7.892l17.833,15.6c3.549,3.093,8.933,2.727,12.031-0.817
				c3.099-3.544,2.741-8.928-0.798-12.033l-17.829-15.6c-9.237-7.923-21.035-12.225-33.204-12.108h-21.81
				c3.021-30.34,12.796-53.45,29.134-69.278c0.055,0.029,0.086,0.083,0.143,0.111l52.271,26.133
				c7.514,3.76,12.707,10.966,13.896,19.283l6.004,42.025c0.599,4.199,4.192,7.319,8.433,7.325c0.408,0.001,0.816-0.027,1.221-0.083
				c4.665-0.67,7.905-4.993,7.237-9.658l-6.004-42.025c-1.977-13.862-10.631-25.871-23.154-32.133l-44.961-22.479
				c7.831-4.554,16.277-7.957,25.078-10.104c0.331-0.131,0.653-0.284,0.963-0.458c7.378,9.255,19.044,13.997,30.787,12.517
				c0.529-0.068,1.05-0.182,1.558-0.341l40.176-12.921c22.326,31.183,58.386,49.605,96.737,49.42
				c64.321,0.65,117.033-50.881,117.842-115.2C494.128,51.887,441.415,0.356,377.095,1.006z M289.728,491.131
				c-2.135,2.707-5.272,4.438-8.7,4.8l0,0c-3.272-0.053-6.364-1.506-8.492-3.992l-19.668-19.702l48.756,4.064L289.728,491.131z
				 M272.541,397.539c2.12-2.356,5.075-3.791,8.237-4l0.25,0.009c3.292,0.32,6.323,1.932,8.429,4.483l12.16,15.148l-48.746,4.063
				L272.541,397.539z M238.936,435.523l69.067-5.758c4.187-0.356,8.33,1.065,11.417,3.917c4.724,4.346,6.166,11.214,3.587,17.093
				c-2.578,5.879-8.606,9.471-15.004,8.94l-69.067-5.758V435.523z M119.47,295.598c0,79.117,41.707,135.29,102.4,140.133v17.338
				c-92.179-3.751-168.038-67.894-184.407-151.546c9.292,5.5,19.88,8.431,30.677,8.492c0.421,0,0.846,0,1.271-0.009
				c4.677-0.098,8.404-3.944,8.355-8.622s-3.856-8.445-8.534-8.445c-0.367-0.017-0.713,0.009-1.058,0.009
				c-12.789-0.442-24.898-5.872-33.734-15.129c-0.192-3.352-0.303-6.724-0.303-10.121c0.049-14.463,1.903-28.864,5.519-42.868
				c10.844,10.865,25.248,17.447,40.56,18.534c0.162,0.009,0.321,0.017,0.483,0.017c4.616-0.007,8.389-3.684,8.516-8.298
				c0.126-4.614-3.44-8.492-8.049-8.751c-14.093-1.446-26.917-8.784-35.304-20.201c-0.092-0.137-0.24-0.204-0.339-0.333
				c6.62-17.317,15.82-33.534,27.289-48.1c7.539,14.293,20.188,25.219,35.425,30.6c2.894,0.975,6.088,0.329,8.375-1.694
				c2.287-2.023,3.319-5.114,2.705-8.106s-2.781-5.426-5.68-6.384c-13.148-5.044-23.556-15.405-28.659-28.53
				c25.627-26.79,58.283-45.82,94.226-54.909v4.94c-0.01,25.977,6.592,51.529,19.185,74.25
				C161.381,178.546,119.47,209.579,119.47,295.598z M287.767,161.673c-2.631-4.903-4.839-10.021-6.597-15.3
				c-1.482-4.474-6.31-6.899-10.783-5.417s-6.899,6.31-5.417,10.783c1.751,5.22,3.876,10.306,6.358,15.221l-35.533,11.43
				c-6.201,0.53-12.194-2.377-15.617-7.575l-0.979-1.458c-14.973-22.42-22.954-48.781-22.929-75.742v-7.275
				c0.011-9.421,7.645-17.056,17.067-17.067h189.763l-33.092,27.575c-2.467,2.057-3.57,5.326-2.854,8.457
				c0.716,3.132,3.13,5.596,6.246,6.376l39.267,9.817L287.767,161.673z"/>
		</g>
	</g>
</g>
<g>
</g>
<g>
</g>
<g>
</g>
<g>
</g>
<g>
</g>
<g>
</g>
<g>
</g>
<g>
</g>
<g>
</g>
<g>
</g>
<g>
</g>
<g>
</g>
<g>
</g>
<g>
</g>
<g>
</g>
</svg>
