<svg height="452pt" viewBox="0 0 452.0273 452" width="452pt" xmlns="http://www.w3.org/2000/svg"><path d="m65.355469 22.367188s6.816406 25.320312 26.445312 26.492187c0 0-26.199219 9.050781-26.644531 28.40625 0 0-5.15625-27.144531-25.847656-28.121094 0 0 24.097656-3.648437 26.046875-26.777343zm0 0" fill="#d7e057"/><path d="m65.15625 80.261719c-1.425781 0-2.671875-1.011719-2.945312-2.433594-.046876-.246094-4.988282-24.832031-23.046876-25.683594-1.539062-.074219-2.773437-1.300781-2.855468-2.84375-.078125-1.539062 1.023437-2.886719 2.550781-3.121093.878906-.136719 21.785156-3.632813 23.507813-24.066407.121093-1.449219 1.269531-2.601562 2.714843-2.734375 1.472657-.117187 2.789063.800782 3.167969 2.207032.0625.230468 6.519531 23.25 23.726562 24.28125 1.429688.085937 2.59375 1.167968 2.792969 2.585937.195313 1.414063-.636719 2.773437-1.988281 3.242187-.242188.085938-24.234375 8.621094-24.625 25.640626-.035156 1.53125-1.21875 2.789062-2.75 2.917968-.082031.007813-.167969.007813-.25.007813zm-15.484375-31.457031c7.757813 3.9375 12.460937 11.492187 15.175781 17.753906 4.050782-8.042969 11.882813-13.574219 17.894532-16.855469-8.265626-3.683594-13.566407-11.300781-16.667969-17.441406-3.585938 8.714843-10.539063 13.734375-16.402344 16.542969zm0 0" fill="#3a312a"/><path d="m21.957031 56.328125s4.824219 17.90625 18.703125 18.738281c0 0-18.53125 6.402344-18.84375 20.089844 0 0-3.648437-19.199219-18.28125-19.886719 0 0 17.046875-2.582031 18.421875-18.941406zm0 0" fill="#d7e057"/><path d="m21.816406 98.15625c-1.429687 0-2.675781-1.011719-2.945312-2.4375-.035156-.164062-3.410156-16.882812-15.480469-17.453125-1.539063-.074219-2.773437-1.300781-2.855469-2.839844-.078125-1.542969 1.023438-2.890625 2.546875-3.125.59375-.09375 14.730469-2.484375 15.886719-16.226562.121094-1.453125 1.269531-2.605469 2.722656-2.734375 1.445313-.125 2.78125.796875 3.164063 2.203125.039062.15625 4.453125 15.839843 15.984375 16.527343 1.429687.085938 2.597656 1.171876 2.792968 2.589844.191407 1.417969-.640624 2.777344-1.992187 3.242188-.164063.058594-16.566406 5.90625-16.824219 17.324218-.035156 1.535157-1.222656 2.796876-2.753906 2.921876-.082031.003906-.164062.007812-.246094.007812zm-9.039062-23.054688c4.214844 2.667969 7.046875 6.789063 8.894531 10.5625 2.75-4.464843 7.03125-7.746093 10.730469-9.945312-4.574219-2.539062-7.769532-6.699219-9.882813-10.449219-2.347656 4.574219-6.03125 7.75-9.742187 9.832031zm0 0" fill="#3a312a"/><path d="m21.957031 3.015625s4.824219 17.90625 18.703125 18.738281c0 0-18.53125 6.398438-18.84375 20.089844 0 0-3.648437-19.203125-18.28125-19.890625 0 0 17.046875-2.582031 18.421875-18.9375zm0 0" fill="#d7e057"/><path d="m21.816406 44.84375c-1.429687 0-2.675781-1.015625-2.945312-2.441406-.035156-.164063-3.410156-16.882813-15.480469-17.453125-1.539063-.074219-2.773437-1.300781-2.855469-2.839844-.078125-1.542969 1.023438-2.890625 2.546875-3.125.59375-.09375 14.730469-2.484375 15.886719-16.222656.121094-1.453125 1.269531-2.609375 2.722656-2.7382815 1.445313-.1210937 2.78125.7968745 3.164063 2.2031245.039062.160157 4.453125 15.839844 15.984375 16.53125 1.429687.085938 2.597656 1.167969 2.792968 2.585938.191407 1.417969-.640624 2.777344-1.992187 3.246094-.164063.054687-16.566406 5.90625-16.824219 17.324218-.035156 1.53125-1.222656 2.792969-2.753906 2.921876-.082031.003906-.164062.007812-.246094.007812zm-9.039062-23.054688c4.214844 2.664063 7.046875 6.785157 8.894531 10.558594 2.75-4.464844 7.03125-7.742187 10.730469-9.945312-4.574219-2.539063-7.769532-6.699219-9.882813-10.445313-2.347656 4.570313-6.03125 7.75-9.742187 9.832031zm0 0" fill="#3a312a"/><path d="m43.117188 361.105469-38.242188 66.632812c-3.863281 6.699219-1.542969 15.261719 5.179688 19.101563 2.179687 1.257812 4.578124 1.859375 6.9375 1.859375 4.863281 0 9.582031-2.519531 12.160156-7.042969l82.5-143.738281c-7.71875-5.519531-15.019532-11.578125-21.859375-18.140625l-32.597657 56.796875zm0 0" fill="#87796f"/><path d="m16.992188 451.699219c-2.957032 0-5.875-.78125-8.441407-2.261719-3.9375-2.25-6.765625-5.910156-7.953125-10.296875-1.1875-4.382813-.59374975-8.964844 1.675782-12.902344l38.238281-66.628906c.824219-1.441406 2.660156-1.933594 4.097656-1.109375s1.933594 2.65625 1.109375 4.09375l-38.246094 66.636719c-1.464844 2.546875-1.851562 5.507812-1.082031 8.339843.765625 2.835938 2.597656 5.203126 5.148437 6.664063 1.664063.960937 3.542969 1.464844 5.453126 1.464844 3.949218 0 7.609374-2.117188 9.554687-5.527344l81.160156-141.410156c-5.976562-4.394531-11.742187-9.15625-17.207031-14.199219l-30.703125 53.503906c-.824219 1.441406-2.664063 1.933594-4.097656 1.109375-1.4375-.824219-1.929688-2.660156-1.109375-4.09375l32.597656-56.796875c.457031-.800781 1.261719-1.34375 2.175781-1.476562.898438-.128906 1.835938.164062 2.503907.804687 6.722656 6.445313 13.964843 12.457031 21.527343 17.863281 1.253907.898438 1.625 2.597657.859375 3.9375l-82.5 143.738282c-3.007812 5.269531-8.664062 8.546875-14.761718 8.546875zm0 0" fill="#3a312a"/><path d="m441.972656 446.839844c-2.179687 1.261718-4.578125 1.859375-6.9375 1.859375-4.863281 0-9.582031-2.519531-12.160156-7.039063l-82.5-143.738281c7.71875-5.523437 15.019531-11.582031 21.859375-18.140625l84.917969 147.957031c3.859375 6.703125 1.542968 15.261719-5.179688 19.101563zm0 0" fill="#87796f"/><path d="m435.035156 451.699219c-6.097656 0-11.753906-3.277344-14.765625-8.554688l-82.496093-143.730469c-.769532-1.339843-.398438-3.039062.855468-3.9375 7.5625-5.40625 14.804688-11.417968 21.53125-17.863281.667969-.640625 1.609375-.933593 2.5-.804687.914063.132812 1.71875.675781 2.175782 1.476562l84.921874 147.960938c2.265626 3.929687 2.859376 8.511718 1.671876 12.894531s-4.011719 8.039063-7.953126 10.296875c-2.566406 1.480469-5.484374 2.261719-8.441406 2.261719zm-90.71875-152.933594 81.15625 141.402344c1.949219 3.414062 5.613282 5.53125 9.558594 5.53125 1.910156 0 3.792969-.503907 5.441406-1.457031.003906-.003907.007813-.007813.011719-.007813 2.554687-1.457031 4.382813-3.824219 5.152344-6.660156.765625-2.835938.382812-5.792969-1.082031-8.339844l-83.03125-144.667969c-5.464844 5.042969-11.230469 9.800782-17.207032 14.199219zm0 0" fill="#3a312a"/><path d="m165.175781 416.535156c0 17.210938-13.949219 31.164063-31.164062 31.164063-17.210938 0-31.160157-13.953125-31.160157-31.164063 0-14.550781 22.269532-44.265625 29.15625-53.113281 1.007813-1.292969 2.953126-1.285156 3.953126.015625 6.84375 8.914062 29.214843 38.726562 29.214843 53.097656zm0 0" fill="#d7e057"/><path d="m134.011719 450.699219c-18.835938 0-34.160157-15.328125-34.160157-34.164063 0-15.078125 20.832032-43.453125 29.789063-54.957031 1.054687-1.347656 2.632813-2.121094 4.335937-2.121094h.023438c1.710938.003907 3.296875.789063 4.339844 2.152344 13.613281 17.722656 29.839844 41.636719 29.839844 54.925781-.003907 18.835938-15.328126 34.164063-34.167969 34.164063zm-.035157-84.917969c-13.675781 17.625-28.125 40.0625-28.125 50.753906 0 15.53125 12.632813 28.164063 28.160157 28.164063 15.53125 0 28.164062-12.632813 28.164062-28.164063 0-8.859375-10.273437-27.339844-28.199219-50.753906zm0 0" fill="#3a312a"/><path d="m154.550781 427.164062c0 11.34375-9.195312 20.535157-20.539062 20.535157-11.339844 0-20.535157-9.191407-20.535157-20.535157 0-9.589843 14.675782-29.167968 19.214844-34.996093.664063-.855469 1.945313-.847657 2.605469.007812 4.511719 5.871094 19.253906 25.519531 19.253906 34.988281zm0 0" fill="#f16c7a"/><path d="m134.011719 450.699219c-12.972657 0-23.535157-10.558594-23.535157-23.535157 0-10.253906 13.878907-29.183593 19.847657-36.84375.886719-1.140624 2.222656-1.789062 3.664062-1.789062h.015625c1.449219.003906 2.789063.664062 3.671875 1.816406 9.066407 11.800782 19.875 27.765625 19.875 36.816406 0 12.976563-10.5625 23.535157-23.539062 23.535157zm-.027344-55.296875c-8.3125 10.867187-17.507813 25.183594-17.507813 31.761718 0 9.671876 7.867188 17.535157 17.535157 17.535157s17.539062-7.863281 17.539062-17.535157c0-5.40625-6.542969-17.21875-17.566406-31.761718zm0 0" fill="#3a312a"/><path d="m257.175781 416.535156c0 17.210938-13.949219 31.164063-31.164062 31.164063-17.210938 0-31.160157-13.953125-31.160157-31.164063 0-14.550781 22.269532-44.265625 29.15625-53.113281 1.007813-1.292969 2.953126-1.285156 3.953126.015625 6.84375 8.914062 29.214843 38.726562 29.214843 53.097656zm0 0" fill="#d7e057"/><path d="m226.011719 450.699219c-18.835938 0-34.160157-15.328125-34.160157-34.164063 0-15.078125 20.832032-43.453125 29.789063-54.957031 1.054687-1.347656 2.632813-2.121094 4.335937-2.121094h.023438c1.710938.003907 3.296875.789063 4.339844 2.152344 13.613281 17.722656 29.839844 41.636719 29.839844 54.925781-.003907 18.835938-15.328126 34.164063-34.167969 34.164063zm-.035157-84.917969c-13.675781 17.625-28.125 40.0625-28.125 50.753906 0 15.53125 12.632813 28.164063 28.160157 28.164063 15.53125 0 28.164062-12.632813 28.164062-28.164063 0-8.859375-10.273437-27.339844-28.199219-50.753906zm0 0" fill="#3a312a"/><path d="m246.550781 427.164062c0 11.34375-9.195312 20.535157-20.539062 20.535157-11.339844 0-20.535157-9.191407-20.535157-20.535157 0-9.589843 14.675782-29.167968 19.214844-34.996093.664063-.855469 1.949219-.847657 2.605469.007812 4.511719 5.871094 19.253906 25.519531 19.253906 34.988281zm0 0" fill="#f16c7a"/><path d="m226.011719 450.699219c-12.972657 0-23.535157-10.558594-23.535157-23.535157 0-10.253906 13.878907-29.183593 19.847657-36.84375.886719-1.140624 2.222656-1.789062 3.664062-1.789062h.015625c1.449219.003906 2.789063.664062 3.671875 1.816406 9.066407 11.800782 19.871094 27.765625 19.871094 36.816406.003906 12.976563-10.558594 23.535157-23.535156 23.535157zm-.027344-55.296875c-8.3125 10.867187-17.507813 25.183594-17.507813 31.761718 0 9.671876 7.867188 17.535157 17.535157 17.535157s17.539062-7.863281 17.539062-17.535157c0-5.40625-6.542969-17.21875-17.566406-31.761718zm0 0" fill="#3a312a"/><path d="m349.175781 416.535156c0 17.210938-13.949219 31.164063-31.164062 31.164063-17.210938 0-31.160157-13.953125-31.160157-31.164063 0-14.550781 22.269532-44.265625 29.15625-53.113281 1.007813-1.292969 2.953126-1.285156 3.953126.015625 6.84375 8.914062 29.214843 38.726562 29.214843 53.097656zm0 0" fill="#d7e057"/><path d="m318.011719 450.699219c-18.835938 0-34.160157-15.328125-34.160157-34.164063 0-15.078125 20.832032-43.453125 29.789063-54.957031 1.058594-1.355469 2.5625-2.117187 4.359375-2.121094 1.710938.003907 3.296875.789063 4.339844 2.152344 13.613281 17.722656 29.839844 41.636719 29.839844 54.925781-.003907 18.835938-15.328126 34.164063-34.167969 34.164063zm-.035157-84.917969c-13.675781 17.625-28.125 40.0625-28.125 50.753906 0 15.53125 12.632813 28.164063 28.160157 28.164063 15.53125 0 28.164062-12.632813 28.164062-28.164063 0-8.859375-10.273437-27.339844-28.199219-50.753906zm0 0" fill="#3a312a"/><path d="m338.550781 427.164062c0 11.34375-9.195312 20.535157-20.539062 20.535157-11.339844 0-20.535157-9.191407-20.535157-20.535157 0-9.589843 14.675782-29.167968 19.214844-34.996093.664063-.855469 1.949219-.847657 2.605469.007812 4.511719 5.871094 19.253906 25.519531 19.253906 34.988281zm0 0" fill="#f16c7a"/><path d="m318.011719 450.699219c-12.972657 0-23.535157-10.558594-23.535157-23.535157 0-10.253906 13.878907-29.183593 19.847657-36.84375.886719-1.140624 2.222656-1.789062 3.664062-1.789062h.015625c1.449219.003906 2.789063.664062 3.671875 1.816406 9.066407 11.800782 19.871094 27.765625 19.871094 36.816406.003906 12.976563-10.558594 23.535157-23.535156 23.535157zm-.027344-55.296875c-8.3125 10.867187-17.507813 25.183594-17.507813 31.761718 0 9.671876 7.867188 17.535157 17.535157 17.535157s17.539062-7.863281 17.539062-17.535157c0-5.40625-6.542969-17.21875-17.566406-31.761718zm0 0" fill="#3a312a"/><path d="m390.011719 450.699219h-328c-1.652344 0-3-1.34375-3-3 0-1.660157 1.347656-3 3-3h328c1.65625 0 3 1.339843 3 3 0 1.65625-1.34375 3-3 3zm0 0" fill="#3a312a"/><path d="m422.332031 152.257812c-7.457031 101.921876-92.5 182.261719-196.320312 182.261719-103.816407 0-188.859375-80.339843-196.316407-182.261719zm0 0" fill="#8ac6dd"/><g fill="#3a312a"><path d="m226.011719 337.519531c-50.804688 0-99.222657-19.078125-136.339844-53.71875-36.933594-34.464843-59.296875-81.105469-62.96875-131.324219-.0625-.828124.222656-1.648437.792969-2.257812.566406-.613281 1.363281-.957031 2.199218-.957031h392.636719c.835938 0 1.628907.34375 2.199219.957031.570312.609375.855469 1.429688.792969 2.257812-3.675781 50.21875-26.039063 96.859376-62.96875 131.324219-37.117188 34.640625-85.535157 53.71875-136.34375 53.71875zm-193.0625-182.257812c4.269531 47.472656 25.785156 91.457031 60.816406 124.15625 36 33.597656 82.964844 52.101562 132.246094 52.101562 49.285156 0 96.25-18.503906 132.25-52.101562 35.03125-32.699219 56.546875-76.683594 60.816406-124.15625zm0 0"/><path d="m109.78125 79.710938c-.859375 0-1.710938-.367188-2.304688-1.078126-1.0625-1.269531-.890624-3.164062.378907-4.226562 5.078125-4.242188 7.898437-9.863281 7.941406-15.832031.042969-5.945313-2.675781-11.578125-7.660156-15.867188l-.941407-.8125c-6.3125-5.429687-9.777343-12.664062-9.746093-20.363281.027343-7.714844 3.546875-14.9375 9.914062-20.339844l.164063-.136718c1.269531-1.0664068 3.160156-.902344 4.226562.367187 1.066406 1.265625.902344 3.160156-.363281 4.222656l-.15625.132813c-5 4.238281-7.769531 9.84375-7.789063 15.773437-.023437 5.917969 2.699219 11.53125 7.660157 15.796875l.945312.8125c6.339844 5.457032 9.800781 12.722656 9.746094 20.457032-.058594 7.757812-3.640625 15-10.09375 20.394531-.5625.46875-1.242187.699219-1.921875.699219zm0 0"/><path d="m167.976562 79.710938c-.859374 0-1.710937-.367188-2.304687-1.078126-1.0625-1.269531-.890625-3.164062.378906-4.226562 5.078125-4.242188 7.898438-9.863281 7.941407-15.832031.042968-5.945313-2.679688-11.578125-7.660157-15.867188l-.945312-.8125c-6.3125-5.429687-9.773438-12.664062-9.746094-20.367187.027344-7.714844 3.550781-14.933594 9.921875-20.335938l.144531-.125c1.265625-1.0742185 3.15625-.921875 4.230469.335938 1.070312 1.261718.921875 3.15625-.335938 4.230468l-.152343.132813c-5.019531 4.25-7.789063 9.855469-7.808594 15.785156-.019531 5.917969 2.699219 11.527344 7.660156 15.796875l.945313.8125c6.339844 5.457032 9.800781 12.722656 9.746094 20.457032-.054688 7.757812-3.640626 15-10.09375 20.394531-.5625.46875-1.246094.699219-1.921876.699219zm0 0"/><path d="m226.171875 79.710938c-.859375 0-1.710937-.367188-2.304687-1.078126-1.0625-1.269531-.890626-3.164062.378906-4.226562 5.078125-4.242188 7.898437-9.863281 7.941406-15.832031.042969-5.945313-2.679688-11.578125-7.660156-15.867188l-.945313-.8125c-6.308593-5.429687-9.773437-12.664062-9.746093-20.367187.03125-7.714844 3.550781-14.933594 9.921874-20.335938l.144532-.125c1.265625-1.0742185 3.15625-.921875 4.230468.335938 1.074219 1.261718.921876 3.15625-.335937 4.230468l-.152344.132813c-5.015625 4.25-7.785156 9.855469-7.808593 15.785156-.019532 5.917969 2.703124 11.527344 7.664062 15.796875l.945312.816406c6.339844 5.453126 9.796876 12.71875 9.742188 20.453126-.054688 7.757812-3.640625 15-10.09375 20.394531-.5625.46875-1.242188.699219-1.921875.699219zm0 0"/><path d="m284.371094 79.710938c-.863282 0-1.710938-.367188-2.304688-1.078126-1.0625-1.269531-.894531-3.164062.378906-4.226562 5.078126-4.242188 7.894532-9.863281 7.941407-15.832031.039062-5.945313-2.679688-11.578125-7.660157-15.867188l-.945312-.8125c-6.3125-5.429687-9.773438-12.664062-9.746094-20.363281.027344-7.714844 3.550782-14.9375 9.917969-20.339844l.164063-.136718c1.269531-1.0664068 3.160156-.902344 4.222656.367187 1.066406 1.265625.90625 3.160156-.363282 4.222656l-.152343.132813c-5 4.238281-7.769531 9.84375-7.789063 15.773437-.023437 5.917969 2.699219 11.53125 7.660156 15.796875l.941407.8125c6.34375 5.457032 9.804687 12.722656 9.746093 20.457032-.054687 7.757812-3.640624 15-10.09375 20.394531-.5625.46875-1.242187.699219-1.917968.699219zm0 0"/><path d="m342.5625 79.710938c-.859375 0-1.707031-.367188-2.304688-1.078126-1.058593-1.269531-.890624-3.164062.378907-4.226562 5.078125-4.242188 7.898437-9.863281 7.941406-15.832031.042969-5.945313-2.675781-11.578125-7.660156-15.867188l-.941407-.8125c-6.3125-5.429687-9.773437-12.664062-9.746093-20.367187.027343-7.714844 3.550781-14.933594 9.917969-20.335938l.144531-.125c1.269531-1.0742185 3.15625-.921875 4.230469.335938 1.074218 1.261718.925781 3.15625-.335938 4.230468l-.152344.132813c-5.015625 4.25-7.785156 9.855469-7.804687 15.785156-.023438 5.917969 2.699219 11.527344 7.660156 15.796875l.941406.8125c6.34375 5.457032 9.804688 12.722656 9.746094 20.457032-.054687 7.757812-3.636719 15-10.09375 20.394531-.5625.46875-1.242187.699219-1.921875.699219zm0 0"/></g><path d="m332.539062 110.371094h-307.644531c-11.53125 0-20.882812 9.347656-20.882812 20.878906v.125c0 11.53125 9.351562 20.882812 20.882812 20.882812h402.238281c11.53125 0 20.878907-9.351562 20.878907-20.882812v-.125c0-11.53125-9.347657-20.882812-20.878907-20.882812h-94.59375zm0 0" fill="#8ac6dd"/><path d="m427.132812 155.257812h-402.238281c-13.167969 0-23.882812-10.714843-23.882812-23.882812 0-13.289062 10.714843-24.003906 23.882812-24.003906h307.644531c1.65625 0 3 1.339844 3 3 0 1.65625-1.34375 3-3 3h-307.644531c-9.859375 0-17.882812 8.019531-17.882812 17.882812 0 9.980469 8.023437 18.003906 17.882812 18.003906h402.238281c9.859376 0 17.878907-8.023437 17.878907-17.882812 0-9.984375-8.019531-18.003906-17.878907-18.003906h-67.640624c-1.65625 0-3-1.34375-3-3 0-1.660156 1.34375-3 3-3h67.640624c13.167969 0 23.878907 10.710937 23.878907 23.882812 0 13.289063-10.710938 24.003906-23.878907 24.003906zm0 0" fill="#3a312a"/><path d="m419.074219 155.257812c-4.261719 47.480469-25.78125 91.460938-60.820313 124.160157-36 33.601562-82.960937 52.101562-132.242187 52.101562-5.019531 0-10.019531-.203125-15-.582031 43.742187-3.359375 84.921875-21.339844 117.242187-51.519531 35.039063-32.699219 56.558594-76.679688 60.820313-124.160157zm0 0" fill="#6ca8bf"/><path d="m445.011719 131.378906c0 9.859375-8.019531 17.878906-17.878907 17.878906h-30c9.859376 0 17.878907-8.019531 17.878907-17.878906 0-9.980468-8.019531-18.019531-17.878907-18.019531h30c9.859376 0 17.878907 8.039063 17.878907 18.019531zm0 0" fill="#6ca8bf"/></svg>