<?xml version="1.0" encoding="iso-8859-1"?>
<!-- Generator: Adobe Illustrator 19.0.0, SVG Export Plug-In . SVG Version: 6.00 Build 0)  -->
<svg version="1.1" id="Capa_1" xmlns="http://www.w3.org/2000/svg" xmlns:xlink="http://www.w3.org/1999/xlink" x="0px" y="0px"
	 viewBox="0 0 512 512" style="enable-background:new 0 0 512 512;" xml:space="preserve">
<g>
	<g>
		<path d="M509.392,253.942c-11.183-71.604-39.294-129.017-83.555-170.652c-45.293-42.605-116.254-42.609-161.549-0.01
			c-2.726,2.563-5.39,5.205-8.003,7.907c-2.782-2.894-5.627-5.729-8.554-8.482C202.44,40.1,131.479,40.096,86.181,82.695
			c-44.265,41.628-72.384,99.039-83.576,170.643c-0.521,2.601-4.903,25.945-1.003,56.887c5.386,42.731,24.218,79.656,54.459,106.784
			c3.078,2.761,7.811,2.504,10.574-0.574c2.761-3.078,2.504-7.812-0.574-10.574c-27.786-24.925-44.453-57.559-49.536-96.995
			c-3.838-29.771,0.736-52.453,0.78-52.669c0.026-0.126,0.05-0.253,0.07-0.381C28.023,187.505,54.624,132.928,96.44,93.604
			c39.544-37.189,101.492-37.184,141.03,0.009c2.988,2.811,5.886,5.713,8.715,8.682c-10.748,12.576-20.381,26.396-28.762,41.318
			c-2.025,3.605-0.744,8.17,2.862,10.195c3.605,2.024,8.17,0.743,10.195-2.861c12.099-21.541,26.925-40.637,44.067-56.757
			c39.544-37.188,101.491-37.184,141.03,0.009c41.811,39.33,68.405,93.91,79.045,162.223c0.019,0.121,0.043,0.251,0.068,0.371
			c0.058,0.282,5.745,28.592-0.971,63.59c-8.894,46.343-34.27,82.037-75.424,106.091c-22.593,13.206-47.916,19.808-73.246,19.807
			c-25.331-0.001-50.67-6.607-73.262-19.816c-41.149-24.06-66.521-59.757-75.41-106.101c-6.712-34.999-1.022-63.307-0.965-63.581
			c0.026-0.126,0.05-0.253,0.07-0.381c3.553-22.795,8.999-44.393,16.185-64.197c1.41-3.887-0.597-8.182-4.485-9.592
			c-3.885-1.408-8.182,0.597-9.592,4.485c-7.496,20.659-13.174,43.142-16.877,66.825c-0.595,2.965-6.057,32.067,0.846,68.675
			c5.681,30.126,21.034,70.304,60.886,101.915c-0.755,0.456-1.489,0.927-2.255,1.375c-42.123,24.622-93.4,26.494-137.162,5.009
			c-3.712-1.822-8.199-0.291-10.021,3.422c-1.822,3.712-0.291,8.199,3.422,10.021c22.343,10.969,46.454,16.419,70.524,16.419
			c27.943,0,55.83-7.35,80.795-21.942c2.69-1.572,5.29-3.183,7.814-4.825c2.795,1.839,5.67,3.646,8.669,5.4
			c24.925,14.573,52.872,21.86,80.82,21.86c27.941,0,55.883-7.283,80.804-21.85c56.339-32.932,76.06-81.684,82.684-116.784
			C515.445,286.006,509.985,256.901,509.392,253.942z"/>
	</g>
</g>
<g>
	<g>
		<path d="M345.08,226.608c-0.003,0-0.002,0-0.005,0c-23.654,0-45.896,9.212-62.625,25.937
			c-16.729,16.728-25.943,38.969-25.944,62.626c-0.004,48.837,39.726,88.571,88.563,88.575c0.003,0,0.004,0,0.007,0
			c23.654,0,45.894-9.212,62.623-25.937c16.729-16.727,25.943-38.969,25.945-62.626C433.647,266.346,393.918,226.612,345.08,226.608
			z M397.11,367.219c-13.9,13.898-32.378,21.552-52.034,21.552c-0.002,0-0.004,0-0.005,0c-40.58-0.002-73.593-33.019-73.59-73.599
			c0.001-19.657,7.657-38.138,21.558-52.037c13.9-13.898,32.38-21.552,52.036-21.552c0.001,0,0.003,0,0.004,0
			c19.658,0.001,38.139,7.658,52.038,21.558c13.9,13.901,21.553,32.382,21.552,52.04
			C418.668,334.839,411.012,353.319,397.11,367.219z"/>
	</g>
</g>
<g>
</g>
<g>
</g>
<g>
</g>
<g>
</g>
<g>
</g>
<g>
</g>
<g>
</g>
<g>
</g>
<g>
</g>
<g>
</g>
<g>
</g>
<g>
</g>
<g>
</g>
<g>
</g>
<g>
</g>
</svg>
