<?xml version="1.0" encoding="iso-8859-1"?>
<!-- Generator: Adobe Illustrator 19.0.0, SVG Export Plug-In . SVG Version: 6.00 Build 0)  -->
<svg version="1.1" id="Capa_1" xmlns="http://www.w3.org/2000/svg" xmlns:xlink="http://www.w3.org/1999/xlink" x="0px" y="0px"
	 viewBox="0 0 512 512" style="enable-background:new 0 0 512 512;" xml:space="preserve">
<g>
	<g>
		<path d="M391.693,336.22l64.248,9.551l33.977,36.958L512,362.427l-41.157-44.766l-72.044-10.71
			c5.554-28.966,5.702-51.052,5.705-52.393l0.021-8.493l-32.202-19.419l62.654-59.862l-29.361-45.57
			c9.368-11.043,15.037-25.319,15.037-40.901c0-34.916-28.406-63.322-63.322-63.322c-4.715,0-9.465,0.538-14.12,1.599l-11.665,2.659
			v34.547h-33.895l-2.41,12.058c-0.819,4.098-1.234,8.29-1.234,12.46c0,34.916,28.406,63.323,63.323,63.323
			c8.491,0,16.591-1.692,23.997-4.736l15.018,23.31l-50.665,48.406c-27.045-15.959-57.877-24.405-89.301-24.405
			c-31.572,0-62.609,8.523-89.754,24.649l-0.769,0.457l-50.205-47.967l15.018-23.31c7.406,3.044,15.506,4.736,23.997,4.736
			c34.916,0,63.323-28.406,63.323-63.323c0-4.171-0.415-8.363-1.233-12.46l-2.409-12.06h-33.896V22.387l-11.665-2.659
			c-4.653-1.061-9.403-1.599-14.12-1.599c-34.916,0-63.321,28.406-63.321,63.323c0,15.582,5.668,29.858,15.038,40.901l-29.361,45.57
			l62.062,59.297L107.473,246l0.021,8.558c0.003,1.342,0.151,23.427,5.705,52.393l-72.044,10.71L0,362.427l22.081,20.302
			L56.06,345.77l64.248-9.551c1.476,4.95,3.12,9.959,4.956,14.978c2.099,5.736,4.365,11.222,6.775,16.488L58.056,381.65
			l-23.065,50.001l27.236,12.564l16.588-35.958l68.695-12.969c5.282,7.705,11.025,14.656,17.214,20.837L99.67,447.721
			l-13.543,36.972l28.165,10.316l9.376-25.6l67.781-32.923c18.837,10.623,40.444,16.073,64.55,16.073s45.713-5.451,64.55-16.073
			l67.781,32.923l9.376,25.6l28.165-10.316l-13.543-36.972l-65.054-31.597c6.189-6.181,11.932-13.132,17.214-20.837l68.695,12.969
			l16.588,35.958l27.236-12.564l-23.065-50.001l-73.983-13.966c2.41-5.266,4.675-10.752,6.775-16.488
			C388.572,346.179,390.216,341.17,391.693,336.22z M357.33,113.64c-16.511,0-30.257-12.071-32.878-27.85h37.089V47.25
			c16.396,2.076,29.116,16.111,29.116,33.063C390.657,98.689,375.707,113.64,357.33,113.64z M150.459,48.388v38.539h37.089
			c-2.62,15.781-16.365,27.851-32.878,27.851c-18.376,0-33.326-14.951-33.326-33.328C121.343,64.501,134.063,50.465,150.459,48.388z
			 M358.331,341.537c-19.872,53.768-54.301,81.031-102.33,81.031c-48.029,0-82.458-27.263-102.33-81.031
			c-11.694-31.642-14.94-63.871-15.837-78.683l44.114-26.207c22.512-13.374,48.252-20.442,74.435-20.442
			c26.523,0,52.547,7.239,75.26,20.935l42.531,25.647C373.279,277.569,370.042,309.847,358.331,341.537z"/>
	</g>
</g>
<g>
	<g>
		<circle cx="220.023" cy="165.633" r="17.057"/>
	</g>
</g>
<g>
	<g>
		<circle cx="291.971" cy="165.633" r="17.057"/>
	</g>
</g>
<g>
</g>
<g>
</g>
<g>
</g>
<g>
</g>
<g>
</g>
<g>
</g>
<g>
</g>
<g>
</g>
<g>
</g>
<g>
</g>
<g>
</g>
<g>
</g>
<g>
</g>
<g>
</g>
<g>
</g>
</svg>
