<svg height="512" viewBox="0 0 60 60" width="512" xmlns="http://www.w3.org/2000/svg"><g id="049---Spices"><circle id="Oval" cx="20" cy="29" r="1"/><circle id="Oval" cx="28" cy="34" r="1"/><circle id="Oval" cx="22" cy="39" r="1"/><circle id="Oval" cx="14" cy="38" r="1"/><circle id="Oval" cx="26" cy="26" r="1"/><path id="Shape" d="m51.33 6.47c-1.55-2.81-3.76-6-7.2-6.42-3.13-.4-7.55 1.87-10.41 4.37-9.19 1.46-15.62 6.58-15.72 12.58v4.73c-.7971806.52231-1.5588513 1.0969037-2.28 1.72-9.19 1.43-15.62 6.55-15.72 12.55v4.65c.06768873 2.3600873.98774454 4.6158226 2.59 6.35l.18.86c1.36821611 7.0443332 7.5340265 12.1329082 14.71 12.14h7c7.1786277.015791 13.362146-5.05679 14.75-12.1l.18-.87c1.5293017-1.6535045 2.4437278-3.7824579 2.59-6.03h.55c7.1522978-.0176452 13.29724-5.082618 14.68-12.1l.17-.83c1.6204848-1.7633637 2.5445546-4.0557677 2.6-6.45v-4.62c0-4.82-4.21-8.53-8.67-10.53zm4.4 20.53c-3 3.28-8.3 5.45-14.37 5.9-.4149458-.9986239-.9779262-1.9290587-1.67-2.76 7.89-.16 14.86-3 18.2-7.32-.3065755 1.5708334-1.0560506 3.0212067-2.16 4.18zm1.72-7.28c-2.69 6.32-12.68 8.76-19.8 8.41-1.3062493-1.0430546-2.7413857-1.9135472-4.27-2.59 1.8555811.3228682 3.7366143.4768318 5.62.46 7.79 0 14.37-2.63 16.39-6.54.6162935-1.1638588.7698905-2.517656.43-3.79-.027264-.0791651-.0607-.1560679-.1-.23-.73-1.28-1.61-3.29-2.84-5.89 3.75 2.36 6.29 6.08 4.57 10.12zm-21.54 15.58c.1795528.7581188.0727144 1.5558456-.3 2.24-1.61 3.16-7.78 5.46-14.61 5.46s-12.85-2.24-14.55-5.34c2.87-1.89 6.78-5 7.53-8.36 1-4.16 8.33-8.7 11.89-8.27 4.78.62 7.37 9.48 10.04 14.27zm-29.91.23c.29-1.79 2.17-3.52 5.09-4.74-1.41458392 1.8581268-3.13597262 3.4611489-5.09 4.74zm18-19c.29-1.78 2.17-3.5 5.08-4.72-1.4088809 1.851356-3.1275836 3.4448776-5.08 4.71zm19.87-14.53c4.79.62 7.41 9.56 10 14.27.1795528.7581188.0727144 1.5558456-.3 2.24-1.57 3.19-7.74 5.49-14.57 5.49-2.4009902.0088172-4.7934072-.2868748-7.12-.88-1.81-2.56-4.09-4.37-7.18-4.08-.0903616-.1253583-.1738189-.2555516-.25-.39 3.1-2 6.45-4.74 7.5-8.27.99-4.16 8.3-8.79 11.92-8.38zm-12.47 4.94c-.5181999.71502911-.9260817 1.50382525-1.21 2.34-5.14 1.61-8.19 4.46-8.19 7.72.0120605.8603075.2243351 1.7059818.62 2.47-.6221316.1964411-1.2330453.4267856-1.83.69-.5106541-.9756081-.7814674-2.0588615-.79-3.16 0-4.34 4.68-8.32 11.4-10.06zm-18 19c-.5300868.7107268-.9451531 1.500365-1.23 2.34-5.17 1.6-8.17 4.46-8.17 7.72.00019999.8542281.20963579 1.6954046.61 2.45 4.42 8.7 28.27 8.75 32.78 0 .3944357-.7568544.6035044-1.5965564.61-2.45.0048363-.532917-.0901326-1.0620298-.28-1.56-.72-1.28-1.67-3.44-2.84-5.89 3.74 2.35 6.3 6.07 4.57 10.12-2.12 5-9.71 8.44-18.45 8.44-10.48 0-19-5-19-11.1 0-4.35 4.68-8.33 11.41-10.07zm26.5 15.82c-.3335367 1.6283989-1.1204369 3.1294025-2.27 4.33-7.24 7.8-26 7.81-33.26 0-1.17381733-1.2122243-1.96650493-2.7419723-2.28-4.4 7.7 9.94 30.25 9.79 37.81.07zm-15.38 16.24h-7c-5.4460825-.0160881-10.30953629-3.4125329-12.2-8.52 8.39 6 23 6 31.44 0-1.8955654 5.1211773-6.7792652 8.5206154-12.24 8.52zm18-19h-.52c.0779389-1.3771133.0444968-2.7582725-.1-4.13 4.5729949-.3088242 8.9841252-1.8159891 12.79-4.37-1.8811913 5.0986108-6.7354263 8.4889967-12.17 8.5z"/><circle id="Oval" cx="38" cy="9" r="1"/><circle id="Oval" cx="44" cy="12" r="1"/><circle id="Oval" cx="43" cy="18" r="1"/><circle id="Oval" cx="36" cy="15" r="1"/><circle id="Oval" cx="44" cy="7" r="1"/></g></svg>