<svg id="Capa_1" enable-background="new 0 0 512 512" height="512" viewBox="0 0 512 512" width="512" xmlns="http://www.w3.org/2000/svg"><g><path d="m208.085 120.173-36.93 23.148-24.757 15.515c0-69.341-44.182-114.482-77.068-138.486-8.139-5.942-4.807-17.732 3.59-19.971 1.454-.392 3.064-.495 4.786-.227 98.793 15.235 130.379 120.021 130.379 120.021z" fill="#f9f6f9"/><path d="m171.156 143.321-24.757 15.515c0-69.341-44.182-114.482-77.068-138.486-8.139-5.942-4.807-17.732 3.59-19.971 33.463 14.059 82.947 50.287 98.235 142.942z" fill="#e2dfe2"/><path d="m435.265 20.349c-32.886 24.004-77.068 69.145-77.068 138.486l-31.452-19.713-30.235-18.949s31.586-104.786 130.378-120.022c4.508-.702 8.211 1.114 10.501 4.002 3.653 4.591 3.745 11.915-2.124 16.196z" fill="#f9f6f9"/><path d="m437.39 4.153c-29.616 11.038-91.726 44.522-110.645 134.969l-30.235-18.949s31.586-104.786 130.378-120.022c4.509-.702 8.212 1.114 10.502 4.002z" fill="#e2dfe2"/><path d="m419.489 261.52h-326.978c-49.225 0-89.13-39.905-89.13-89.13h505.238c0 49.225-39.905 89.13-89.13 89.13z" fill="#985e33"/><path d="m397.366 425.864-78.12 62.616c-39.127 31.359-94.769 31.359-133.896 0l-78.12-62.616c-33.887-27.161-48.009-72.106-35.733-113.77l33.907-115.122c13.049-44.305 52.97-75.108 98.854-76.727 1.269-.051 2.548-.072 3.827-.072h88.425c1.279 0 2.558.021 3.827.072 45.884 1.619 85.805 32.422 98.854 76.727l33.907 115.122c12.276 41.664-1.846 86.609-35.732 113.77z" fill="#c17d4f"/><path d="m252.299 512c-23.695 0-47.39-7.839-66.948-23.519l-78.12-62.616c-33.887-27.161-48.009-72.106-35.733-113.77l33.907-115.121c13.049-44.306 52.97-75.108 98.854-76.728 1.269-.051 2.548-.072 3.827-.072h23.808c-.588 0-1.176.021-1.764.072-21.168 1.62-39.591 32.422-45.615 76.728l-15.649 115.121c-5.663 41.665.856 86.609 16.495 113.77l36.043 62.616c9.026 15.68 19.96 23.519 30.895 23.519z" fill="#985e33"/><g fill="#282528"><path d="m130.658 247.119c-12.925 0-23.44 15.715-23.44 35.032 0 19.316 10.515 35.032 23.44 35.032 12.924 0 23.44-15.715 23.44-35.032-.001-19.317-10.516-35.032-23.44-35.032z"/><path d="m373.371 247.119c-12.925 0-23.44 15.715-23.44 35.032 0 19.316 10.515 35.032 23.44 35.032 12.924 0 23.44-15.715 23.44-35.032-.001-19.317-10.516-35.032-23.44-35.032z"/></g><path d="m285.069 375.193v-130.358h-65.542v130.358c0 11.674-4.925 22.7-13.262 30.871-7.559 7.409-12.25 17.732-12.25 29.154 0 22.556 18.285 40.842 40.842 40.842h34.881c22.556 0 40.842-18.285 40.842-40.842 0-11.422-4.691-21.744-12.25-29.154-8.336-8.172-13.261-19.198-13.261-30.871z" fill="#a59da5"/><path d="m337.745 380.075c0 33.069-26.816 59.884-59.874 59.884h-51.148c-16.534 0-31.493-6.706-42.33-17.544s-17.534-25.806-17.534-42.341c0-16.74 6.861-31.874 17.956-42.742 12.218-11.971 19.44-28.134 19.44-45.256v-171.834c1.277-.051 2.555-.072 3.832-.072h88.42c1.288 0 2.565.021 3.832.072v171.835c0 17.122 7.222 33.285 19.44 45.256 5.553 5.429 10.044 11.929 13.145 19.172 3.09 7.231 4.821 15.205 4.821 23.57z" fill="#f9f6f9"/><path d="m240.982 439.954h-14.256c-16.536 0-31.493-6.705-42.335-17.536-10.831-10.841-17.536-25.809-17.536-42.345 0-16.742 6.87-31.875 17.959-42.738 12.224-11.976 19.445-28.141 19.445-45.254v-171.837c1.269-.052 2.548-.073 3.827-.073h24.654c-.567 0-1.135.021-1.692.073v171.837c0 17.113-3.198 33.278-8.603 45.254-4.91 10.863-7.943 25.995-7.943 42.738 0 16.536 2.961 31.504 7.757 42.345 4.797 10.831 11.409 17.536 18.723 17.536z" fill="#e2dfe2"/><path d="m299.865 369c0 23.602-17.276 43.226-39.837 46.935v24.024h-15.453v-24.024c-22.571-3.709-39.847-23.333-39.847-46.935 0-4.265 3.461-7.726 7.726-7.726s7.726 3.461 7.726 7.726c0 17.699 14.392 32.101 32.08 32.121h.072c17.688-.021 32.08-14.423 32.08-32.121 0-4.265 3.461-7.726 7.726-7.726 4.266 0 7.727 3.461 7.727 7.726z" fill="#a59da5"/></g></svg>